<?xml version="1.0" encoding="utf-8"?>
<!DOCTYPE svg PUBLIC "-//W3C//DTD SVG 1.1//EN" "http://www.w3.org/Graphics/SVG/1.1/DTD/svg11.dtd">
<svg version="1.1" xmlns="http://www.w3.org/2000/svg" xmlns:xlink="http://www.w3.org/1999/xlink" width="40px" height="40px" 
 x="0px" y="0px" viewBox="0 0 1000 1000" enable-background="new 0 0 1000 1000" xml:space="preserve">

<g><g transform="translate(0.000000,511.000000) scale(0.100000,-0.100000)">
<path d="M4437.1,4991.6C3542,4891.4,2632,4509.9,1922.3,3936.6C910,3118.3,268.5,1948.3,119.4,650.4C78.9,285.9,104.4-428,172.6-781.8c191.8-1005.9,656.4-1884,1378.9-2597.9c748-739.5,1690-1210.5,2734.3-1366.1c392.1-59.7,993.1-63.9,1376.7-8.5c1438.5,202.5,2674.6,991,3471.7,2216.4c355.9,543.4,598.8,1178.5,718.2,1864.8c53.3,315.4,63.9,1054.9,21.3,1404.4c-136.4,1061.3-603.1,2026.7-1355.4,2802.5c-413.5,426.2-816.2,718.2-1353.3,984.6c-496.6,242.9-988.9,392.1-1551.5,466.7C5338.6,5019.3,4722.7,5023.5,4437.1,4991.6z M5715.8,4463c878-144.9,1677.2-543.4,2316.6-1146.6C9326,2086.8,9756.5,205,9121.4-1461.6C8678.1-2629.5,7723.4-3577.9,6547-4019c-522.1-198.2-916.4-264.3-1545.1-264.3c-511.5,0-692.6,21.3-1118.9,127.9c-1059.2,268.5-2041.7,995.3-2636.3,1952.2C566.9-1110,407.1,258.2,816.2,1496.5c543.4,1651.7,2009.7,2823.8,3763.6,3009.2C4848.4,4533.4,5421.7,4512.1,5715.8,4463z"/><path d="M3710.4,1406.9c-61.8-61.8-72.5-87.4-72.5-174.8v-102.3L4143,622.7l505.1-507.2L4143-391.8L3637.9-899v-102.3c0-87.4,10.7-113,72.5-174.8c61.8-61.8,87.4-72.5,174.8-72.5h102.3l507.2,505.1l507.2,505.1l507.2-505.1l507.2-505.1h102.3c87.4,0,112.9,10.7,174.7,72.5c61.8,61.8,72.5,87.4,72.5,174.8V-899l-505.1,507.2l-505.1,507.2l505.1,507.2l505.1,507.2v102.3c0,87.4-10.7,113-72.5,174.8c-78.8,78.8-181.2,95.9-274.9,49c-25.6-12.8-264.3-240.8-530.7-505.1l-485.9-483.8l-483.8,483.8c-268.5,264.3-507.2,492.3-532.8,505.1C3891.5,1502.8,3789.2,1485.8,3710.4,1406.9z"/></g></g>
</svg>